<svg width="21" height="17" viewBox="0 0 21 17" fill="none" xmlns="http://www.w3.org/2000/svg"><path fill-rule="evenodd" clip-rule="evenodd" d="M0.25 1C0.25 0.585786 0.585786 0.25 1 0.25H2.78426C3.30868 0.25 3.77734 0.577334 3.95786 1.0697L7.26774 10.097C7.44826 10.5893 7.91692 10.9167 8.44134 10.9167H15.9142C16.4522 10.9167 16.9299 10.5724 17.1 10.062L19.1596 3.88333H8.46667C8.05245 3.88333 7.71667 3.54755 7.71667 3.13333C7.71667 2.71912 8.05245 2.38333 8.46667 2.38333H19.5064C20.3596 2.38333 20.9621 3.2192 20.6923 4.02862L19.9808 3.79145L20.6923 4.02862L18.5231 10.5363C18.1488 11.6592 17.0979 12.4167 15.9142 12.4167H8.44134C7.28762 12.4167 6.25657 11.6965 5.85941 10.6133L2.60965 1.75H1C0.585786 1.75 0.25 1.41421 0.25 1Z" fill="black"></path><path d="M14.8667 15.5778C14.8667 14.7923 15.5034 14.1555 16.2889 14.1555C17.0744 14.1555 17.7111 14.7923 17.7111 15.5778C17.7111 16.3632 17.0744 17 16.2889 17C15.5034 17 14.8667 16.3632 14.8667 15.5778Z" fill="black"></path><path d="M6.33325 15.5778C6.33325 14.7923 6.97 14.1555 7.75547 14.1555C8.54095 14.1555 9.1777 14.7923 9.1777 15.5778C9.1777 16.3632 8.54095 17 7.75547 17C6.97 17 6.33325 16.3632 6.33325 15.5778Z" fill="black"></path></svg>