<svg width="19" height="20" viewBox="0 0 19 20" fill="none" xmlns="http://www.w3.org/2000/svg"><path fill-rule="evenodd" clip-rule="evenodd" d="M16.3846 6.71999C16.7976 6.75399 17.1056 7.11499 17.0726 7.52799C17.0666 7.59599 16.5246 14.307 16.2126 17.122C16.0186 18.869 14.8646 19.932 13.1226 19.964C11.7896 19.987 10.5036 20 9.2466 20C7.8916 20 6.5706 19.985 5.2636 19.958C3.5916 19.925 2.4346 18.841 2.2456 17.129C1.9306 14.289 1.3916 7.59499 1.3866 7.52799C1.3526 7.11499 1.6606 6.75299 2.0736 6.71999C2.4806 6.70899 2.8486 6.99499 2.8816 7.40699C2.88479 7.4504 3.10514 10.184 3.34526 12.8887L3.39349 13.4285C3.51443 14.7728 3.63703 16.0646 3.7366 16.964C3.8436 17.937 4.3686 18.439 5.2946 18.458C7.7946 18.511 10.3456 18.514 13.0956 18.464C14.0796 18.445 14.6116 17.953 14.7216 16.957C15.0316 14.163 15.5716 7.47499 15.5776 7.40699C15.6106 6.99499 15.9756 6.70699 16.3846 6.71999ZM11.3454 0.000293732C12.2634 0.000293732 13.0704 0.619294 13.3074 1.50629L13.5614 2.76729C13.6435 3.18067 14.0062 3.48255 14.4263 3.48918L17.708 3.48929C18.122 3.48929 18.458 3.82529 18.458 4.23929C18.458 4.65329 18.122 4.98929 17.708 4.98929L14.4556 4.98914C14.4505 4.98924 14.4455 4.98929 14.4404 4.98929L14.416 4.98829L4.04162 4.98917C4.03355 4.98925 4.02548 4.98929 4.0174 4.98929L4.002 4.98829L0.75 4.98929C0.336 4.98929 0 4.65329 0 4.23929C0 3.82529 0.336 3.48929 0.75 3.48929L4.031 3.48829L4.13202 3.4819C4.50831 3.43308 4.82104 3.14729 4.8974 2.76729L5.1404 1.55129C5.3874 0.619294 6.1944 0.000293732 7.1124 0.000293732H11.3454ZM11.3454 1.50029H7.1124C6.8724 1.50029 6.6614 1.66129 6.6004 1.89229L6.3674 3.06229C6.33779 3.21049 6.29467 3.35331 6.23948 3.48956H12.2186C12.1634 3.35331 12.1201 3.21049 12.0904 3.06229L11.8474 1.84629C11.7964 1.66129 11.5854 1.50029 11.3454 1.50029Z" fill="black"></path></svg>